<svg xmlns="http://www.w3.org/2000/svg" viewBox="0 0 368 368" fill="#e8e6e3">
    <path d="M360 184a32 32 0 11-64 0 32 32 0 0164 0zm0 0M120 360a64 64 0 0064-64V72A64 64 0 0057.6 57.6 64 64 0 0072 184a64 64 0 00-14.4 126.4A64 64 0 00120 360zm0 0" opacity=".3"/>
    <path d="M240 48h48.8a40 40 0 100-16H232a8 8 0 00-8 8v40h-32v-8A72 72 0 0051 51a72 72 0 00-12 133 72 72 0 0012 133 72 72 0 00141-21v-8h32v40a8 8 0 008 8h56.8a40 40 0 100-16H240V192h48.8a40 40 0 100-16H240zm88-32a24 24 0 110 48 24 24 0 010-48zm0 288a24 24 0 110 48 24 24 0 010-48zm0-144a24 24 0 110 48 24 24 0 010-48zM120 352a55.8 55.8 0 01-56-56 56 56 0 0156-56 8 8 0 100-16 72 72 0 00-72 72l.1 2.6A56 56 0 0172 192h48a8 8 0 100-16H72A56 56 0 0148.1 69.4L48 72a72 72 0 0072 72 8 8 0 100-16 56 56 0 1156-56v224a56 56 0 01-56 56zm104-80h-32v-80h32zm-32-96V96h32v80zm0 0"/>
</svg>