<svg xmlns="http://www.w3.org/2000/svg" viewBox="0 0 24 24" fill="#e8e6e3">
    <path d="M22.2 14.3L20.9 13v-2l1.3-1.3c.5-.5.7-1.3.3-2l-1.6-2.6c-.3-.7-1.1-1-1.9-.8l-1.7.6c-.5-.5-1.1-.8-1.8-1.1L15.1 2C15 1.3 14.3.8 13.6.8h-3.2C9.7.8 9 1.3 9 2l-.4 1.8c-.7.3-1.3.6-1.8 1L5 4.3c-.7-.2-1.5.1-1.8.7L1.5 7.7c-.4.7-.2 1.5.3 2L3.1 11v2l-1.3 1.3c-.5.5-.7 1.3-.3 2l1.6 2.6c.3.7 1.1 1 1.9.8l1.7-.6c.5.5 1.1.8 1.8 1.1l.4 1.8c.1.7.8 1.2 1.5 1.2h3.2c.7 0 1.4-.5 1.5-1.2l.4-1.8c.7-.3 1.3-.6 1.8-1l1.7.5c.8.2 1.6-.1 2-.7l1.5-2.7c.4-.7.2-1.5-.3-2z" opacity=".3"/>
    <path d="M13.7 24h-3.4c-.8 0-1.5-.6-1.6-1.3l-.5-2c-.7-.2-1.3-.6-2-1l-1.7.5c-.8.3-1.7 0-2-.8L.7 16.6c-.4-.7-.3-1.6.3-2.2l1.4-1.3a10 10 0 010-2.2L1.1 9.6C.5 9 .4 8 .8 7.4l1.6-2.8c.4-.7 1.3-1 2-.8l1.9.6c.6-.5 1.2-.9 2-1.2l.4-1.9C8.8.6 9.5 0 10.3 0h3.4c.8 0 1.5.6 1.6 1.3l.5 2c.7.2 1.3.6 2 1l1.7-.5c.8-.3 1.7 0 2 .8l1.7 2.8c.4.7.3 1.6-.3 2.2l-1.4 1.3a10 10 0 010 2.2l1.4 1.3c.6.6.7 1.5.3 2.2l-1.6 2.8c-.4.7-1.3 1-2 .8l-1.9-.6c-.6.5-1.2.9-2 1.2l-.4 1.9c-.1.7-.8 1.3-1.6 1.3zm-7.3-6l.5.2c.7.6 1.4 1 2.2 1.3.3.1.5.3.5.6l.5 2.2.2.2h3.4s.2 0 .2-.2l.5-2.2c0-.3.2-.5.5-.6.8-.3 1.5-.7 2.2-1.3.2-.1.5-.2.7-.1l2.2.7.3-.1 1.6-2.9v-.3L20.2 14a.7.7 0 01-.2-.7 8.8 8.8 0 000-2.6c0-.3 0-.5.2-.7l1.7-1.5v-.3l-1.6-2.9H20l-2.2.6-.7-.1c-.7-.6-1.4-1-2.2-1.3a.8.8 0 01-.5-.6l-.5-2.2-.2-.2h-3.4s-.2 0-.2.2l-.5 2.2c0 .3-.2.5-.5.6-.8.3-1.5.7-2.2 1.3-.2.1-.4.2-.7.1L4 5.2l-.3.1-1.6 2.9v.3L3.8 10c.2.2.3.4.2.7a8.8 8.8 0 000 2.6c0 .3 0 .5-.2.7l-1.7 1.5v.3l1.6 2.9H4l2.2-.6h.2z"/>
    <path d="M11.3 16H11a.8.8 0 01-.6-1L12 8.7c.1-.4.5-.7 1-.6.3.1.6.5.5 1L12 15.3c-.1.4-.4.7-.7.7zm4-1c-.9.4-1.5-.9-.6-1.3l2-1.7-2-1.7a.8.8 0 011-1.1l2.6 2.2c.4.3.4.9 0 1.2l-2.6 2.1zm-6.5 0c-.2 0-.4 0-.6-.2l-2.5-2.2a.8.8 0 010-1.2l2.5-2.2a.8.8 0 011 1.1L7.5 12l1.9 1.7c.4.5 0 1.3-.6 1.3z"/>
</svg>