<?xml version="1.0" encoding="UTF-8" standalone="no"?>
<svg
   xmlns:dc="http://purl.org/dc/elements/1.1/"
   xmlns:cc="http://creativecommons.org/ns#"
   xmlns:rdf="http://www.w3.org/1999/02/22-rdf-syntax-ns#"
   xmlns:svg="http://www.w3.org/2000/svg"
   xmlns="http://www.w3.org/2000/svg"
   xmlns:sodipodi="http://sodipodi.sourceforge.net/DTD/sodipodi-0.dtd"
   xmlns:inkscape="http://www.inkscape.org/namespaces/inkscape"
   width="128"
   height="128"
   style="enable-background:new 0 0 128 128;"
   version="1.1"
   id="svg16"
   sodipodi:docname="Emoji_u1f44b.svg"
   inkscape:version="1.0.2 (394de47547, 2021-03-26)">
  <metadata
     id="metadata22">
    <rdf:RDF>
      <cc:Work
         rdf:about="">
        <dc:format>image/svg+xml</dc:format>
        <dc:type
           rdf:resource="http://purl.org/dc/dcmitype/StillImage" />
      </cc:Work>
    </rdf:RDF>
  </metadata>
  <defs
     id="defs20" />
  <sodipodi:namedview
     pagecolor="#ffffff"
     bordercolor="#666666"
     borderopacity="1"
     objecttolerance="10"
     gridtolerance="10"
     guidetolerance="10"
     inkscape:pageopacity="0"
     inkscape:pageshadow="2"
     inkscape:window-width="1920"
     inkscape:window-height="1163"
     id="namedview18"
     showgrid="false"
     inkscape:zoom="6.71875"
     inkscape:cx="64"
     inkscape:cy="64"
     inkscape:window-x="0"
     inkscape:window-y="0"
     inkscape:window-maximized="1"
     inkscape:current-layer="svg16" />
  <g
     id="g6"
     transform="translate(0.08401163,-6.4690225)">
    <path
       d="m 39.11,79.56 c -1.1,1.03 -2.21,-0.2 -2.21,-0.2 0,0 -18.48,-19.58 -19.68,-20.46 -1.69,-1.23 -5.31,-3.16 -8.93,0.57 -1.51,1.55 -3.97,5 0.6,10.56 0.99,1.2 29.78,31.54 31.46,33.18 0,0 13.3,12.94 21.35,17.81 2.23,1.35 4.74,2.78 7.67,3.78 2.92,1 6.22,1.69 9.7,1.69 3.48,0.04 7.09,-0.63 10.5,-1.88 3.41,-1.26 6.59,-3.09 9.48,-5.2 0.71,-0.54 1.43,-1.08 2.1,-1.66 l 1.94,-1.6 c 1.35,-1.13 2.61,-2.32 3.82,-3.53 2.43,-2.42 4.62,-5.01 6.55,-7.66 1.92,-2.66 3.55,-5.41 4.85,-8.15 1.3,-2.74 2.21,-5.49 2.76,-8.09 0.58,-2.59 0.74,-5.04 0.65,-7.18 -0.02,-2.14 -0.45,-3.97 -0.8,-5.43 -0.4,-1.46 -0.83,-2.55 -1.17,-3.27 -0.33,-0.72 -0.51,-1.1 -0.51,-1.1 v 0 c -0.46,-1.29 -0.9,-2.52 -1.29,-3.63 -1.1,-3.13 -2.37,-6.64 -3.69,-10.25 -0.56,-1.53 -0.82,-2.22 -0.82,-2.22 l 0.01,0.03 C 108.6,42.5 103.39,28.93 103.39,28.93 c -0.79,-2.39 -3.7,-3.22 -5.84,-1.68 -6.18,4.44 -8.07,10.92 -5.89,17.83 l 5.59,15.32 c 0.79,1.71 -1.39,3.69 -2.85,2.5 C 89.81,59.16 80.1,48.85 80.1,48.85 75.76,44.69 51.27,19.58 49.63,18.05 46.33,14.98 42.17,13.4 39,15.73 c -3.24,2.38 -4.14,6.06 -1.01,10.08 0.85,1.09 25.6,27.24 25.6,27.24 1.44,1.51 -0.26,3.65 -1.85,2.18 0,0 -30.79,-32.12 -32.18,-33.62 -3.15,-3.42 -8.21,-4.17 -11.21,-1.35 -2.93,2.75 -2.86,7.26 0.34,10.8 1.02,1.12 22.71,24.02 31.39,33.4 0.58,0.63 1.03,1.47 0.17,2.26 -0.01,0.01 -0.88,0.95 -2,-0.25 C 45.89,63.95 22.32,39.39 21.01,38.06 18,35 13.96,33.55 10.71,36.53 7.75,39.24 7.27,43.97 10.67,47.31 l 28.55,30.18 c 0,0 0.93,1.1 -0.11,2.07 z"
       style="fill:#fac036"
       id="path2" />
    <path
       d="m 85.46,54.4 2.41,2.58 c 0,0 -13.79,13.31 -4.39,33.75 0,0 1.22,2.59 -0.38,3.02 0,0 -1.4,0.78 -3,-3.2 0,-0.01 -9.49,-19.42 5.36,-36.15 z"
       style="fill:#e48c15"
       id="path4" />
  </g>
</svg>
